 <svg xmlns="http://www.w3.org/2000/svg" fill="white" xmlns:xlink="http://www.w3.org/1999/xlink" version="1.1" x="0px" y="0px" viewBox="0 0 100 125" enable-background="new 0 0 100 100" xml:space="preserve"><g><path fill="none" d="M39.401,63.758c-0.614,0.023-1.091,0.501-1.057,1.137c0.069,2.751,0.091,6.184,0.057,9.55   c-0.023,2.956-0.114,5.89-0.25,8.3c-0.034,0.614-0.215,1-0.648,1.205c-0.738,0.319-2.08,0.432-4.228,0.387   c-1.593-0.022-2.843-0.205-3.684-0.546c-0.524-0.204-0.808-0.454-0.82-0.728c-0.091-1.069,0.228-1.659,0.899-1.955   c0.966-0.41,2.569-0.455,4.764-0.25c0.602,0.045,1.136-0.387,1.193-1c0.057-0.591-0.387-1.114-0.988-1.183   c-2.547-0.227-4.492-0.159-5.844,0.409c-1.625,0.706-2.365,2.025-2.228,4.139c0.091,1.205,0.864,2.047,2.183,2.615   c1.103,0.432,2.638,0.66,4.502,0.682c2.479,0.069,4.07-0.068,5.127-0.546c1.364-0.614,1.865-1.592,1.967-3.114   c0.136-2.388,0.215-5.344,0.261-8.39c0.023-3.411,0-6.868-0.079-9.642C40.515,64.213,40.004,63.758,39.401,63.758z"/><path fill="none" d="M17.583,73.99c2.388-0.249,4.764-0.158,7.651-0.113l1.524,0.068c0.614,0,1.114-0.477,1.126-1.091   c0.012-0.614-0.467-1.092-1.069-1.114l-1.524-0.045c-2.978-0.069-5.411-0.136-7.924,0.113c-1.968,0.205-3.206,0.956-3.831,1.934   c-0.353,0.545-0.501,1.182-0.478,1.796c0.045,0.614,0.239,1.205,0.58,1.728c0.717,1.16,2.137,2.114,4.014,2.274   c1.091,0.091,2.319,0.045,3.627-0.022c0.773-0.023,1.603-0.045,2.536-0.045c0.602,0,1.102-0.501,1.102-1.092   c0-0.614-0.501-1.114-1.102-1.114c-0.808,0-1.729,0.023-2.626,0.069c-1.25,0.067-2.411,0.113-3.332,0.022   c-1.136-0.091-1.966-0.614-2.365-1.25c-0.136-0.227-0.215-0.455-0.227-0.66c-0.012-0.182,0.034-0.363,0.136-0.523   C15.685,74.491,16.378,74.105,17.583,73.99z"/><path fill="none" d="M73.248,73.945l1.523-0.068c2.899-0.045,5.265-0.136,7.663,0.113c1.194,0.114,1.877,0.501,2.161,0.933   c0.113,0.16,0.158,0.341,0.148,0.523c-0.023,0.205-0.091,0.433-0.228,0.66c-0.387,0.637-1.227,1.16-2.353,1.25   c-0.944,0.091-2.104,0.045-3.354-0.022c-0.887-0.045-1.796-0.069-2.615-0.069c-0.614,0-1.114,0.501-1.114,1.114   c0,0.591,0.501,1.092,1.114,1.092c0.943,0,1.751,0.022,2.524,0.045c1.33,0.067,2.558,0.113,3.65,0.022   c1.852-0.159,3.274-1.114,4.013-2.274c0.329-0.523,0.534-1.114,0.556-1.728c0.023-0.615-0.125-1.252-0.489-1.796   c-0.614-0.978-1.852-1.729-3.797-1.934c-2.524-0.249-4.957-0.182-7.936-0.113l-1.534,0.045c-0.603,0.022-1.069,0.501-1.057,1.114   C72.134,73.468,72.633,73.945,73.248,73.945z"/><path d="M94.633,55.027c-0.56-2.049-1.757-3.846-3.571-4.907c-4.801,2.31-10.084,2.338-17.394,2.361c-2.023,0-4.218,0-6.606,0.045   c-2.479,0.069-3.672,0.432-4.23,0.955c-0.387,0.364-0.398,1.001-0.387,1.615c0.035,0.682,0.126,1.364,0.603,1.796   c0.568,0.546,1.649,0.933,3.66,0.978c2.956,0.113,6.629,0.045,9.881,0c3.183-0.045,5.991-0.114,7.424,0   c0.614,0.045,1.057,0.568,1.023,1.16c-0.047,0.614-0.581,1.069-1.171,1.045c-1.41-0.113-4.15-0.068-7.231,0   c-3.297,0.023-6.992,0.114-9.982,0c-2.638-0.091-4.196-0.704-5.117-1.591c-1.023-0.978-1.25-2.138-1.285-3.342   c-0.022-1.114,0.023-2.252,1.08-3.274c0.921-0.842,2.581-1.433,5.697-1.524c2.376-0.069,4.593-0.069,6.639-0.069   c7.042,0,12.109-0.025,16.474-2.159l0.136-0.115c1.558-1.341,2.547-3.138,2.968-5.025c0.353-1.706,0.284-3.433-0.204-5.003   c-0.501-1.524-1.399-2.887-2.707-3.798c-1.096-0.806-2.517-1.271-4.201-1.336c-0.84,1.793-1.306,3.438-1.7,4.838   c-1.16,4.07-1.853,6.503-7.844,6.549c-0.534,0-1.126,0-1.706,0c-1.148,0.023-2.342,0.023-3.502,0.023   c-5.468-0.092-10.403-0.91-10.335-5.685c0.069-4.298,2.001-4.661,3.786-5.003c0.648-0.136,1.239-0.25,1.353-0.978   c0.079-0.477,0-1.136-0.102-1.773c-0.045-0.432-0.091-0.842-0.125-1.252c-0.126-2.25,0.523-4.183,5.218-4.433   c2.115-0.114,3.957-0.136,5.401,0.136c1.728,0.341,2.956,1.092,3.479,2.593c0.126,0.363,0.228,0.818,0.262,1.272   c0.068,0.773-0.023,1.638-0.386,2.388c-0.387,0.864-1.069,1.569-2.183,1.978c-0.387,0.137-0.818,0.205-1.297,0.25   c-1.296,0.114-2.069,0.637-2.341,1.205c-0.102,0.183-0.126,0.387-0.114,0.546c0.023,0.16,0.079,0.341,0.205,0.477   c0.42,0.477,1.353,0.796,2.887,0.591c0.603-0.091,1.16,0.364,1.228,0.933c0.079,0.614-0.329,1.16-0.933,1.25   c-2.388,0.318-4.025-0.363-4.877-1.387c-0.398-0.501-0.625-1.047-0.694-1.638c-0.057-0.568,0.045-1.136,0.319-1.728   c0.568-1.183,1.978-2.252,4.126-2.433c0.296-0.045,0.546-0.091,0.763-0.136c0.477-0.182,0.761-0.477,0.909-0.818   c0.205-0.387,0.239-0.864,0.205-1.296c-0.023-0.274-0.08-0.546-0.148-0.728c-0.227-0.637-0.864-0.978-1.82-1.137   c-1.239-0.25-2.921-0.227-4.877-0.114c-2.796,0.137-3.206,1.069-3.138,2.115c0.01,0.341,0.079,0.704,0.125,1.069   c0.102,0.818,0.217,1.614,0.091,2.41h-0.012c-0.341,2.252-1.682,2.524-3.104,2.796c-0.955,0.159-1.978,0.387-2.012,2.865   c-0.045,2.888,3.843,3.388,8.174,3.457c1.126,0.023,2.297,0,3.457,0c0.568-0.022,1.137-0.022,1.706-0.022   c4.343-0.047,4.855-1.888,5.73-4.935c0.556-1.933,1.227-4.275,2.763-6.981c0.07-0.115,0.162-0.205,0.26-0.284   c0.86-1.975,1.193-3.854,1.036-5.537c-0.114-1.228-0.489-2.342-1.102-3.319c-0.603-0.933-1.455-1.729-2.524-2.32   c-1.517-0.851-3.465-1.26-5.792-1.135c-0.332,1.285-1.237,2.042-2.485,2.522c-1.171,0.454-2.593,0.568-4.093,0.682   c-3.536,0.272-7.572,0.614-7.071,6.64c0.056,0.614-0.398,1.136-1.001,1.205c-0.614,0.045-1.148-0.41-1.182-1.023   c-0.173-2.049,0.022-3.612,0.48-4.812c-0.187,0.013-0.38,0.038-0.56,0.038c-1.148,0-2.183-0.274-3.013-0.773   c-0.886-0.524-1.523-1.319-1.796-2.366c-0.193-0.704-0.193-1.523,0.035-2.433c0.296-1.16,1.966-2.956,4.445-4.274   c1.796-0.933,4.058-1.684,6.582-1.82c0.603-0.022,1.126,0.41,1.149,1.023c0.045,0.614-0.421,1.137-1.035,1.16   c-2.16,0.136-4.127,0.773-5.673,1.591c-1.933,1.023-3.172,2.206-3.331,2.865c-0.137,0.523-0.148,0.978-0.045,1.342   c0.102,0.432,0.397,0.795,0.795,1.022c0.489,0.319,1.137,0.479,1.887,0.479c0.92,0,1.973-0.247,3.045-0.722   c1.743-0.973,3.994-1.168,6.109-1.348c1.353-0.091,2.625-0.205,3.501-0.523c1.169-0.445,1.651-1.622,0.5-4.739   c-1.061-2.344-2.935-4.318-5.195-5.562c-1.58-0.864-3.319-1.387-5.082-1.41c-1.739-0.045-3.502,0.41-5.139,1.41   c-3.49,2.161-6.424,6.913-7.47,15.418l-0.261,2.142l-0.183,57.386c-0.012,1.638,0.159,2.661,0.546,3.206   c0.318,0.432,0.921,0.637,1.83,0.706c0.682,0.068,1.41,0.045,2.24,0c0.329-0.023,0.694-0.045,1.171-0.045   c1.102-0.023,1.114-1.092,1.148-3.342c0-0.455,0.012-0.956,0.023-1.455c0.068-2.161,0.034-4.799,0.01-7.481   c-0.034-3.433-0.068-6.959,0.08-9.483c0.034-0.614,0.546-1.069,1.148-1.045c0.614,0.045,1.08,0.568,1.047,1.182   c-0.148,2.502-0.102,5.935-0.08,9.346c0.023,2.682,0.057,5.366-0.012,7.527c-0.01,0.523-0.01,1-0.022,1.455   c-0.022,1.395-0.04,2.508-0.23,3.359l6.721-0.062c1.808-0.023,3.228-0.228,4.161-0.637c0.637-0.25,0.99-0.591,1.012-1.023   c0.102-1.341-0.227-2.161-1.045-2.593c-1.08-0.545-2.922-0.704-5.582-0.614c-0.614,0-1.126-0.477-1.137-1.069   c-0.01-0.614,0.467-1.114,1.069-1.114c3.048-0.114,5.219,0.091,6.663,0.842c1.694,0.886,2.388,2.365,2.24,4.707   c-0.102,1.341-0.909,2.296-2.354,2.911c-1.205,0.499-2.899,0.773-5.013,0.795l-9.767,0.069c-0.114,0-0.218-0.032-0.321-0.062   c-0.276,0.007-0.563,0.017-0.838,0.017c-0.921,0.068-1.717,0.091-2.524,0.022c-1.546-0.136-2.649-0.568-3.411-1.614   c-0.693-0.978-0.977-2.388-0.966-4.503l0.211-62.759c-0.837-6.622-3.43-10.62-6.646-12.619c-1.603-0.955-3.366-1.455-5.127-1.501   c-1.786-0.045-3.571,0.341-5.207,1.092c-2.559,1.192-4.734,3.275-5.961,5.95c-0.01,0.086-0.009,0.172-0.041,0.257   c-1.25,3.274-0.785,4.479,0.42,4.934c0.864,0.318,2.149,0.432,3.49,0.523c2.118,0.179,4.363,0.374,6.104,1.339   c0.023,0.012,0.048,0.012,0.07,0.026c1.205,0.751,2.501,1.092,3.65,1.069c0.841,0,1.568-0.205,2.171-0.523   c0.501-0.296,0.887-0.706,1.045-1.183h0.012c0.125-0.387,0.125-0.818,0-1.319c-0.182-0.728-1.637-2.114-3.843-3.183   c-1.625-0.796-3.615-1.341-5.741-1.228c-0.615,0.045-1.126-0.432-1.16-1.023c-0.047-0.614,0.42-1.114,1.022-1.16   c2.547-0.158,4.923,0.501,6.844,1.433c2.774,1.364,4.707,3.433,5.003,4.616c0.25,0.931,0.193,1.773-0.045,2.546   c-0.341,1.047-1.08,1.865-2.057,2.41c-0.899,0.501-2.025,0.796-3.241,0.796c-0.368,0-0.746-0.027-1.129-0.076   c0.38,1.156,0.544,2.61,0.391,4.487c-0.045,0.614-0.591,1.069-1.183,1.023c-0.614-0.069-1.069-0.591-1.023-1.205   c0.501-6.026-3.524-6.367-7.06-6.64c-1.49-0.114-2.911-0.228-4.105-0.682c-1.242-0.481-2.141-1.237-2.47-2.522   c-2.33-0.126-4.288,0.283-5.794,1.134c-1.058,0.591-1.922,1.388-2.524,2.32c-0.615,0.977-0.99,2.091-1.104,3.319   c-0.148,1.687,0.189,3.57,1.047,5.55c0.09,0.077,0.176,0.161,0.239,0.271c1.558,2.706,2.228,5.048,2.763,6.981   c0.864,3.047,1.41,4.888,5.73,4.935c0.58,0,1.136,0,1.728,0.022c1.149,0,2.319,0.023,3.457,0c4.309-0.069,8.197-0.568,8.163-3.457   c-0.035-2.479-1.069-2.706-2.025-2.865c-1.42-0.272-2.751-0.545-3.092-2.796h-0.012c-0.113-0.796-0.01-1.592,0.102-2.41   c0.035-0.364,0.102-0.728,0.114-1.069c0.045-1.047-0.341-1.978-3.127-2.115c-1.966-0.113-3.638-0.136-4.877,0.114   c-0.966,0.159-1.603,0.501-1.82,1.137c-0.091,0.182-0.125,0.454-0.158,0.728c-0.035,0.432,0,0.909,0.182,1.296   c0.17,0.341,0.466,0.637,0.944,0.818c0.215,0.045,0.442,0.091,0.75,0.136c2.149,0.182,3.547,1.25,4.139,2.433   c0.261,0.591,0.363,1.16,0.296,1.728c-0.057,0.591-0.284,1.137-0.682,1.638c-0.842,1.023-2.479,1.704-4.878,1.387   c-0.591-0.091-1.012-0.637-0.943-1.25c0.091-0.568,0.637-1.023,1.239-0.933c1.546,0.205,2.479-0.114,2.877-0.591   c0.125-0.136,0.193-0.318,0.215-0.477c0.012-0.159-0.022-0.363-0.101-0.546c-0.285-0.568-1.058-1.091-2.354-1.205   c-0.466-0.045-0.909-0.113-1.296-0.25c-1.104-0.409-1.785-1.114-2.194-1.978c-0.353-0.75-0.455-1.615-0.387-2.388   c0.045-0.454,0.136-0.909,0.262-1.272c0.545-1.501,1.75-2.252,3.49-2.593c1.455-0.272,3.297-0.25,5.389-0.136   c4.706,0.25,5.343,2.183,5.218,4.433c-0.012,0.41-0.069,0.82-0.125,1.252c-0.092,0.637-0.171,1.296-0.102,1.773   c0.113,0.728,0.716,0.842,1.353,0.978c1.785,0.341,3.741,0.704,3.808,5.003c0.057,4.774-4.865,5.593-10.345,5.685   c-1.161,0-2.354,0-3.502-0.023c-0.591,0-1.16,0-1.706,0c-5.992-0.045-6.685-2.479-7.834-6.549c-0.411-1.4-0.881-3.045-1.711-4.838   c-1.696,0.064-3.093,0.53-4.2,1.336c-1.296,0.91-2.205,2.274-2.694,3.798c-0.501,1.569-0.58,3.297-0.217,5.003   c0.421,1.887,1.398,3.684,2.979,5.025l0.156,0.133c4.355,2.114,9.435,2.141,16.443,2.141c1.866,0,3.882,0.003,6.033,0.055   c0.017-0.001,0.032-0.009,0.049-0.009l1.524,0.047c2.911,0.091,5.287,0.136,7.663-0.092c1.205-0.136,1.899-0.499,2.171-0.931   c0.102-0.159,0.148-0.364,0.148-0.524c-0.012-0.227-0.079-0.454-0.227-0.682c-0.398-0.614-1.217-1.136-2.376-1.25   c-0.921-0.068-2.08-0.022-3.32,0.023C37.115,46.955,36.184,47,35.376,47c-0.614,0-1.102-0.501-1.102-1.114   c0-0.614,0.489-1.114,1.102-1.114c0.933,0,1.751-0.023,2.524-0.045c1.331-0.045,2.547-0.114,3.626-0.023   c1.877,0.182,3.298,1.114,4.026,2.274c0.34,0.546,0.523,1.137,0.568,1.729c0.022,0.637-0.126,1.25-0.477,1.796   c-0.625,1-1.853,1.751-3.821,1.955c-0.855,0.085-1.707,0.124-2.568,0.148c0.49,0.818,0.514,1.683,0.488,2.536   c-0.022,1.205-0.25,2.365-1.262,3.342c-0.943,0.887-2.479,1.501-5.116,1.591c-2.991,0.114-6.697,0.023-9.982,0   c-3.104-0.068-5.844-0.113-7.231,0c-0.615,0.023-1.137-0.432-1.171-1.045c-0.057-0.591,0.409-1.114,1.012-1.16   c1.432-0.114,4.24-0.045,7.424,0c3.252,0.045,6.901,0.113,9.868,0c2.013-0.045,3.104-0.432,3.661-0.978   c0.477-0.432,0.591-1.114,0.603-1.796c0.022-0.614,0-1.25-0.388-1.615c-0.523-0.501-1.665-0.853-3.943-0.942l-0.843-0.013   c-0.014-0.001-0.025-0.008-0.038-0.009c-2.152-0.035-4.136-0.036-5.999-0.036c-7.311-0.023-12.604-0.051-17.394-2.361   c-1.814,1.061-3.012,2.858-3.571,4.907c-0.319,1.114-0.421,2.342-0.353,3.525c0.091,1.16,0.364,2.296,0.842,3.319   c0.807,1.774,2.24,3.161,4.263,3.729l0.096,0.026c2.326-0.158,5.164-0.23,8.021-0.23c3.366-0.023,6.697,0.068,9.198,0.25   c2.307,0.182,4.047,0.454,5.275,1.614c1.217,1.183,1.751,3.025,1.524,6.298c-0.045,0.591-0.569,1.069-1.183,1.023   c-0.591-0.045-1.045-0.568-1.023-1.182c0.182-2.502-0.113-3.866-0.841-4.549c-0.717-0.659-2.07-0.886-3.912-1   c-2.49-0.182-5.776-0.272-9.039-0.272c-2.829,0-5.673,0.094-8.03,0.248c-0.995,1.095-1.514,2.768-1.566,4.595   c-0.01,1.16,0.159,2.342,0.534,3.479c0.364,1.114,0.921,2.161,1.66,3.001c1.148,1.342,2.763,2.228,4.832,2.274l1.013,0.023l0.079,1   c0.262,3.729,2.035,6.732,5.105,8.777c3.138,2.115,7.628,3.275,13.245,3.275h29.788c5.605,0,10.095-1.16,13.234-3.275   c3.058-2.046,4.832-5.048,5.116-8.777l0.069-1l1-0.023c2.092-0.045,3.707-0.931,4.855-2.274c0.728-0.841,1.274-1.887,1.649-3.001   c0.364-1.136,0.558-2.319,0.523-3.479c-0.03-1.827-0.558-3.5-1.562-4.596c-2.347-0.154-5.194-0.247-8.01-0.247   c-3.275,0-6.56,0.091-9.061,0.272c-1.831,0.114-3.184,0.341-3.912,1c-0.728,0.682-1.012,2.047-0.852,4.549   c0.057,0.614-0.41,1.136-1.012,1.182c-0.603,0.045-1.126-0.432-1.16-1.023c-0.24-3.274,0.295-5.116,1.523-6.298   c1.228-1.16,2.968-1.432,5.253-1.614c2.501-0.183,5.843-0.274,9.221-0.25c2.848,0,5.678,0.072,8.01,0.23l0.096-0.026   c2.023-0.568,3.445-1.955,4.263-3.729c0.477-1.023,0.75-2.16,0.83-3.319C95.054,57.369,94.951,56.141,94.633,55.027z    M15.491,76.106c0.398,0.637,1.228,1.16,2.365,1.25c0.921,0.091,2.082,0.045,3.332-0.022c0.898-0.045,1.818-0.069,2.626-0.069   c0.602,0,1.102,0.501,1.102,1.114c0,0.591-0.501,1.092-1.102,1.092c-0.933,0-1.763,0.022-2.536,0.045   c-1.307,0.067-2.536,0.113-3.627,0.022c-1.877-0.159-3.297-1.114-4.014-2.274c-0.341-0.523-0.534-1.114-0.58-1.728   c-0.022-0.615,0.126-1.252,0.478-1.796c0.625-0.978,1.864-1.729,3.831-1.934c2.512-0.249,4.946-0.182,7.924-0.113l1.524,0.045   c0.602,0.022,1.08,0.501,1.069,1.114c-0.012,0.614-0.512,1.091-1.126,1.091l-1.524-0.068c-2.887-0.045-5.263-0.136-7.651,0.113   c-1.205,0.114-1.899,0.501-2.183,0.933c-0.102,0.16-0.148,0.341-0.136,0.523C15.276,75.651,15.355,75.879,15.491,76.106z    M40.606,74.469c-0.045,3.047-0.125,6.003-0.261,8.39c-0.102,1.523-0.603,2.501-1.967,3.114c-1.057,0.478-2.649,0.615-5.127,0.546   c-1.864-0.022-3.399-0.25-4.502-0.682c-1.319-0.568-2.092-1.41-2.183-2.615c-0.136-2.114,0.603-3.433,2.228-4.139   c1.353-0.568,3.297-0.636,5.844-0.409c0.602,0.069,1.045,0.591,0.988,1.183c-0.057,0.614-0.591,1.045-1.193,1   c-2.195-0.205-3.798-0.159-4.764,0.25c-0.671,0.296-0.99,0.886-0.899,1.955c0.012,0.274,0.296,0.524,0.82,0.728   c0.841,0.341,2.091,0.524,3.684,0.546c2.148,0.045,3.49-0.068,4.228-0.387c0.433-0.205,0.615-0.591,0.648-1.205   c0.136-2.41,0.227-5.344,0.25-8.3c0.034-3.366,0.012-6.799-0.057-9.55c-0.034-0.637,0.444-1.114,1.057-1.137   c0.603,0,1.114,0.455,1.126,1.069C40.606,67.601,40.629,71.058,40.606,74.469z M73.179,71.74l1.534-0.045   c2.979-0.069,5.412-0.136,7.936,0.113c1.944,0.205,3.183,0.956,3.797,1.934c0.364,0.545,0.512,1.182,0.489,1.796   c-0.022,0.614-0.227,1.205-0.556,1.728c-0.739,1.16-2.161,2.114-4.013,2.274c-1.092,0.091-2.32,0.045-3.65-0.022   c-0.773-0.023-1.581-0.045-2.524-0.045c-0.614,0-1.114-0.501-1.114-1.092c0-0.614,0.501-1.114,1.114-1.114   c0.818,0,1.728,0.023,2.615,0.069c1.25,0.067,2.41,0.113,3.354,0.022c1.126-0.091,1.966-0.614,2.353-1.25   c0.137-0.227,0.205-0.455,0.228-0.66c0.01-0.182-0.035-0.363-0.148-0.523c-0.284-0.432-0.966-0.818-2.161-0.933   c-2.398-0.249-4.764-0.158-7.663-0.113l-1.523,0.068c-0.615,0-1.114-0.477-1.126-1.091C72.11,72.241,72.576,71.762,73.179,71.74z"/></g></svg>